<svg width="36" height="36" viewBox="0 0 36 36" fill="none" xmlns="http://www.w3.org/2000/svg">
<path d="M0 18C0 8.1 8.1 0 18 0C27.9 0 36 8.1 36 18C36 27.9 27.9 36 18 36C8.1 36 0 27.9 0 18Z" fill="#0090F1"/>
<path fill-rule="evenodd" clip-rule="evenodd" d="M13 8.7001C14 9.3001 15.1 10.6001 16 11.6001C16.2 11.8001 16.3 12.2001 16.3 12.5001C16.3 13.0001 16.1 13.6001 15.5 14.1001L10.8 9.5001C11.3 8.8001 11.8 8.6001 12.3 8.6001C12.4 8.6001 12.8 8.6001 13 8.7001ZM14.7 14.9001C14.5 15.1001 14.4 15.5001 14.4 15.7001C14.4 16.1001 14.5 16.3001 15 16.8001C16.5 18.3001 18 19.8001 19.5 21.3001C19.7 21.5001 20 21.6001 20.3 21.6001C20.4 21.6001 20.8 21.4001 21 21.3001L25.7 26.0001C24.5 27.0001 23.1 27.4001 21.8 27.4001C21.1 27.4001 19.9 27.1001 19.2 26.8001C18.9 26.6001 18.4 26.4001 18.1 26.0001C15.3 23.4001 12.4 20.5001 9.80005 17.7001C9.20005 17.1001 8.59998 15.4001 8.59998 14.6001V13.7001C8.79998 12.6001 9 11.4001 10 10.3001L14.7 14.9001ZM24.2 19.8001C25.1 20.4001 26.3 21.7001 27.1 22.7001C27.3 22.9001 27.4 23.3001 27.4 23.6001C27.4 24.1001 27.2 24.6001 26.6 25.2001L21.9 20.5001C22.4 19.9001 22.9 19.6001 23.5 19.6001C23.5 19.6001 23.9 19.6001 24.2 19.8001Z" fill="white"/>
</svg>
