<svg width="295" height="63" viewBox="0 0 295 63" fill="none" xmlns="http://www.w3.org/2000/svg">
<path fill-rule="evenodd" clip-rule="evenodd" d="M71.2023 29.575L63.9023 23.075V6.875C63.9023 5.275 62.5023 3.975 60.9023 3.975H48.9023C47.3023 3.975 45.9023 5.275 45.9023 6.875V7.175L39.2023 1.275C37.4023 -0.425 34.5024 -0.425 32.6024 1.275L0.702348 29.575C-0.197652 30.275 -0.197649 31.475 0.502351 32.275L1.80235 33.775C2.60235 34.575 3.80235 34.675 4.70235 33.975L8.00235 30.975V58.075C8.00235 60.775 10.2024 62.975 13.0024 62.975H58.9023C61.6023 62.975 63.9023 60.775 63.9023 58.075V30.975L67.2023 33.975C68.0023 34.675 69.3024 34.575 70.0023 33.775L71.4023 32.275C72.1023 31.475 72.0023 30.275 71.2023 29.575ZM57.9023 57.075H14.0024V25.675L35.9023 6.275L57.9023 25.675V57.075ZM57.9023 17.775L51.9023 12.475V9.875H57.9023V17.775Z" fill="#284E84"/>
<path d="M30.2023 23.575H41.7023C42.9023 23.575 43.9023 24.575 43.9023 25.875V37.175C43.9023 38.375 42.9023 39.375 41.7023 39.375H30.2023C29.0023 39.375 27.9023 38.375 27.9023 37.175V25.875C27.9023 24.575 29.0023 23.575 30.2023 23.575Z" fill="#0090F1"/>
<path d="M95.5023 51.3749C93.1023 49.9749 91.2023 47.9749 90.0023 45.4749C87.4023 39.7749 87.4023 33.2749 90.0023 27.5749C91.2023 25.1749 93.1023 23.0749 95.5023 21.7749C98.1023 20.3749 101.002 19.5749 104.002 19.6749C106.002 19.6749 108.002 19.9749 109.902 20.5749C111.602 21.1749 113.302 22.0749 114.702 23.2749C115.102 23.4749 115.402 23.7749 115.602 24.1749C115.736 24.5749 115.802 25.0082 115.802 25.4749C115.802 26.0749 115.602 26.6749 115.302 27.1749C114.902 27.6749 114.402 27.8749 113.902 27.8749C113.202 27.8749 112.502 27.6749 111.902 27.2749C110.769 26.3416 109.536 25.6416 108.202 25.1749C106.936 24.7749 105.636 24.5749 104.302 24.5749C101.402 24.3749 98.7023 25.4749 96.8023 27.5749C95.1356 29.6416 94.3023 32.6416 94.3023 36.5749C94.3023 40.5082 95.1356 43.4749 96.8023 45.4749C98.7023 47.5749 101.402 48.6749 104.302 48.5749C105.569 48.5749 106.802 48.3416 108.002 47.8749C109.402 47.4082 110.702 46.7416 111.902 45.8749C112.236 45.6749 112.569 45.5082 112.902 45.3749C113.236 45.2416 113.569 45.1749 113.902 45.1749C114.402 45.1749 114.902 45.4749 115.302 45.8749C115.602 46.3749 115.802 46.9749 115.802 47.6749C115.802 48.0749 115.736 48.4749 115.602 48.8749C115.402 49.2749 115.102 49.6082 114.702 49.8749C113.302 51.0749 111.602 51.9749 109.902 52.4749C108.002 53.1749 106.002 53.4749 104.002 53.4749C101.002 53.4749 98.1023 52.7749 95.5023 51.3749Z" fill="#284E84"/>
<path fill-rule="evenodd" clip-rule="evenodd" d="M137.402 31.975C138.936 33.575 139.702 35.975 139.702 39.175V50.575C139.802 51.275 139.502 51.9749 139.002 52.4749C138.402 52.9749 137.602 53.275 136.902 53.275C136.102 53.275 135.402 52.9749 134.902 52.4749C134.302 51.9749 134.102 51.275 134.102 50.575V49.4749C133.602 50.6749 132.702 51.6749 131.602 52.375C130.302 53.075 129.002 53.375 127.602 53.375C126.102 53.375 124.702 53.0749 123.402 52.4749C122.102 51.8749 121.102 50.975 120.402 49.875C119.602 48.775 119.302 47.575 119.302 46.275C119.202 44.775 119.702 43.375 120.602 42.275C121.702 41.175 123.202 40.375 124.802 40.175C127.469 39.6416 130.169 39.4083 132.902 39.4749H134.102V38.4749C134.202 37.2749 133.802 36.075 133.102 35.075C132.202 34.375 131.102 33.975 129.902 34.075C128.969 34.075 128.036 34.2083 127.102 34.4749C126.169 34.7416 125.036 35.1083 123.702 35.575C123.169 35.9083 122.569 36.1083 121.902 36.175C121.402 36.175 120.902 35.975 120.502 35.575C120.202 35.175 120.002 34.575 120.002 33.975C120.002 33.475 120.102 33.075 120.402 32.675C120.736 32.2083 121.169 31.8416 121.702 31.575C122.969 30.9083 124.302 30.4416 125.702 30.175C127.169 29.775 128.669 29.575 130.202 29.575C133.402 29.6416 135.802 30.4416 137.402 31.975ZM132.602 47.575C133.602 46.475 134.102 45.075 134.102 43.575V42.575H133.202C131.602 42.575 129.969 42.675 128.302 42.875C127.402 42.975 126.502 43.275 125.802 43.875C125.302 44.375 125.002 45.075 125.002 45.775C125.002 46.675 125.402 47.575 126.102 48.175C126.802 48.875 127.802 49.175 128.702 49.175C130.202 49.275 131.602 48.675 132.602 47.575Z" fill="#284E84"/>
<path d="M145.802 51.375C144.802 50.875 144.202 49.875 144.302 48.875C144.202 48.275 144.402 47.775 144.802 47.375C145.102 46.975 145.602 46.775 146.102 46.775C146.902 46.8416 147.636 47.0749 148.302 47.4749C149.169 47.9416 150.069 48.3083 151.002 48.575C152.069 48.8416 153.136 48.9749 154.202 48.9749C155.302 48.9749 156.402 48.775 157.302 48.275C158.002 47.975 158.502 47.2749 158.402 46.4749C158.502 45.9749 158.302 45.575 158.002 45.175C157.536 44.775 157.002 44.5083 156.402 44.375C155.269 43.975 154.102 43.6749 152.902 43.4749C150.702 43.1749 148.602 42.275 146.802 41.075C145.602 39.975 144.902 38.475 145.002 36.775C145.002 35.475 145.402 34.175 146.202 33.075C147.102 31.975 148.302 31.075 149.602 30.575C151.202 29.875 152.802 29.575 154.502 29.575C155.836 29.575 157.136 29.7416 158.402 30.075C159.536 30.4083 160.636 30.9083 161.702 31.575C162.602 31.975 163.202 32.975 163.202 33.975C163.202 34.575 163.002 35.175 162.702 35.575C162.402 35.975 161.902 36.175 161.402 36.175C161.002 36.175 160.669 36.1083 160.402 35.9749C159.936 35.7749 159.502 35.575 159.102 35.375C158.369 34.975 157.569 34.6083 156.702 34.275C155.902 34.075 155.102 33.975 154.302 33.975C153.302 33.875 152.302 34.175 151.502 34.675C150.902 35.075 150.502 35.775 150.502 36.575C150.502 37.275 150.902 37.975 151.502 38.375C152.836 38.975 154.202 39.375 155.602 39.575C157.269 39.9083 158.902 40.4083 160.502 41.075C161.602 41.475 162.502 42.175 163.102 43.175C163.702 44.175 163.902 45.275 163.902 46.375C163.902 48.375 162.902 50.2749 161.202 51.4749C159.102 52.8749 156.602 53.475 154.102 53.375C151.202 53.475 148.302 52.775 145.802 51.375Z" fill="#284E84"/>
<path d="M190.302 38.975V50.475C190.402 51.275 190.102 51.975 189.602 52.575C189.002 53.075 188.202 53.375 187.402 53.275C186.602 53.375 185.802 53.075 185.202 52.575C184.702 51.975 184.402 51.275 184.402 50.475V38.975C184.502 37.675 184.202 36.475 183.402 35.375C182.602 34.575 181.402 34.175 180.202 34.275C178.702 34.175 177.202 34.775 176.102 35.875C175.102 36.975 174.502 38.475 174.602 40.075V50.475C174.602 51.275 174.302 51.975 173.802 52.575C173.202 53.075 172.402 53.375 171.602 53.275C170.802 53.375 170.002 53.075 169.502 52.575C168.902 51.975 168.602 51.275 168.702 50.475V22.575C168.602 21.875 169.002 21.075 169.502 20.575C170.102 20.075 170.902 19.875 171.702 19.875C172.402 19.875 173.202 20.075 173.802 20.575C174.302 21.075 174.602 21.775 174.602 22.475V33.375C175.402 32.175 176.402 31.175 177.702 30.575C179.102 29.875 180.702 29.575 182.202 29.575C187.602 29.575 190.302 32.7083 190.302 38.975Z" fill="#284E84"/>
<path fill-rule="evenodd" clip-rule="evenodd" d="M203.302 51.375C201.002 49.975 199.202 47.975 198.102 45.475C195.702 39.775 195.702 33.375 198.102 27.575C199.202 25.175 201.002 23.175 203.202 21.775C208.202 19.075 214.202 19.075 219.102 21.775C221.402 23.175 223.202 25.175 224.302 27.575C226.702 33.275 226.702 39.775 224.302 45.475C223.202 47.975 221.402 49.975 219.102 51.375C214.202 54.075 208.202 54.075 203.302 51.375ZM219.902 47.075C221.969 44.6083 223.002 41.1083 223.002 36.575C223.002 31.975 221.969 28.4417 219.902 25.975C215.402 21.275 207.702 21.075 202.902 25.575C202.769 25.7083 202.602 25.875 202.402 26.075C200.336 28.5417 199.302 32.0417 199.302 36.575C199.302 41.0417 200.336 44.5417 202.402 47.075C206.902 51.875 214.502 52.075 219.302 47.675C219.502 47.475 219.702 47.275 219.902 47.075Z" fill="#0090F1"/>
<path d="M238.302 24.175C237.302 25.375 236.802 27.075 236.902 28.675V30.375H242.602C243.002 30.375 243.302 30.475 243.602 30.675C243.802 30.875 243.902 31.275 243.902 31.575C243.902 31.875 243.802 32.175 243.602 32.375C243.302 32.575 243.002 32.675 242.602 32.675H236.902V51.775C236.902 52.175 236.802 52.575 236.502 52.875C236.202 53.075 235.802 53.275 235.402 53.275C235.002 53.275 234.702 53.075 234.402 52.875C234.102 52.575 234.002 52.175 234.002 51.775V32.675H230.402C230.102 32.675 229.802 32.575 229.502 32.375C229.302 32.175 229.202 31.875 229.202 31.575C229.202 31.275 229.302 30.975 229.502 30.675C229.802 30.475 230.102 30.375 230.402 30.375H234.002V29.175C233.902 26.875 234.602 24.575 236.002 22.775C237.502 21.175 239.602 20.175 241.902 20.175L243.102 20.075C244.302 19.9417 244.902 20.3083 244.902 21.175C244.902 21.9083 244.469 22.3083 243.602 22.375L242.302 22.475C240.802 22.475 239.402 23.075 238.302 24.175Z" fill="#0090F1"/>
<path d="M253.402 24.175C252.302 25.375 251.902 27.075 252.002 28.675V30.375H257.702C258.102 30.375 258.402 30.475 258.702 30.675C258.902 30.875 259.002 31.275 259.002 31.575C259.002 31.875 258.902 32.175 258.702 32.375C258.402 32.575 258.102 32.675 257.702 32.675H252.002V51.775C252.002 52.175 251.902 52.575 251.602 52.875C251.302 53.075 250.902 53.275 250.502 53.275C250.102 53.275 249.802 53.075 249.502 52.875C249.202 52.575 249.102 52.175 249.102 51.775V32.675H245.502C245.202 32.675 244.902 32.575 244.602 32.375C244.402 32.175 244.302 31.875 244.302 31.575C244.302 31.275 244.402 30.975 244.602 30.675C244.902 30.475 245.202 30.375 245.502 30.375H249.102V29.175C249.002 26.875 249.702 24.575 251.102 22.775C252.602 21.175 254.702 20.175 257.002 20.175L258.202 20.075C259.402 19.9417 260.002 20.3083 260.002 21.175C260.002 21.9083 259.569 22.3083 258.702 22.375L257.402 22.475C255.902 22.475 254.402 23.075 253.402 24.175Z" fill="#0090F1"/>
<path d="M274.802 30.175C275.102 30.375 275.302 30.675 275.202 31.075C275.202 31.875 274.736 32.3083 273.802 32.375L272.402 32.475C270.402 32.575 268.602 33.475 267.402 34.875C266.302 36.275 265.702 37.975 265.802 39.675V51.775C265.802 52.175 265.602 52.575 265.402 52.875C265.102 53.175 264.702 53.275 264.302 53.275C263.902 53.275 263.602 53.175 263.302 52.875C263.002 52.575 262.802 52.175 262.902 51.775V31.375C262.802 30.975 263.002 30.575 263.302 30.275C263.602 29.975 263.902 29.875 264.302 29.875C264.702 29.875 265.102 29.975 265.302 30.275C265.602 30.575 265.702 30.975 265.702 31.275V34.375C266.969 31.6417 269.369 30.175 272.902 29.975L273.602 29.875C274.002 29.875 274.502 29.875 274.802 30.175Z" fill="#0090F1"/>
<path d="M282.202 52.7748C281.002 52.4415 279.869 51.9748 278.802 51.3748C278.336 51.0415 277.936 50.6748 277.602 50.2748C277.336 50.0082 277.202 49.6748 277.202 49.2748C277.202 48.9748 277.302 48.6748 277.502 48.4748C277.702 48.2748 278.002 48.1748 278.202 48.1748C278.802 48.3082 279.302 48.5415 279.702 48.8748C280.569 49.4082 281.502 49.8748 282.502 50.2748C283.702 50.6748 284.902 50.8748 286.102 50.8748C287.702 50.9748 289.202 50.5748 290.502 49.8748C291.502 49.2748 292.102 48.1748 292.102 46.9748C292.102 46.3748 291.902 45.6748 291.502 45.1748C291.002 44.5748 290.302 44.1748 289.602 43.8748C288.336 43.4082 287.069 43.0748 285.802 42.8748C283.702 42.4748 281.602 41.6748 279.802 40.4748C278.602 39.4748 278.002 37.9748 278.102 36.4748C278.002 34.5748 278.902 32.7748 280.402 31.6748C282.202 30.3748 284.402 29.7748 286.602 29.8748C287.802 29.8082 288.969 29.9415 290.102 30.2748C291.169 30.5415 292.136 31.0082 293.002 31.6748C294.136 32.4082 294.702 33.1415 294.702 33.8748C294.702 34.1415 294.602 34.4082 294.402 34.6748C294.202 34.8748 293.902 34.9748 293.602 34.9748C293.102 34.8748 292.602 34.6748 292.202 34.2748C291.402 33.7415 290.536 33.2748 289.602 32.8748C288.602 32.4748 287.502 32.2748 286.402 32.2748C285.002 32.2748 283.702 32.5748 282.502 33.3748C281.602 34.0748 281.002 35.1748 281.002 36.3748C281.002 36.9748 281.202 37.5748 281.502 38.1748C282.002 38.6748 282.602 39.0748 283.202 39.3748C284.336 39.8415 285.502 40.1748 286.702 40.3748C288.436 40.7748 290.102 41.3082 291.702 41.9748C292.702 42.4748 293.602 43.1748 294.202 43.9748C295.702 46.5748 295.002 49.8748 292.602 51.5748C290.702 52.8748 288.402 53.4748 286.102 53.3748C284.769 53.3748 283.469 53.1748 282.202 52.7748Z" fill="#0090F1"/>
</svg>
