<svg width="20" height="16" viewBox="0 0 20 16" fill="none" xmlns="http://www.w3.org/2000/svg">
<path d="M1.691 2.292C3.094 0.771 5.217 0 8 0H9V2.819L8.196 2.98C6.826 3.254 5.873 3.793 5.363 4.584C5.09689 5.01013 4.94597 5.49804 4.925 6H8C8.26522 6 8.51957 6.10536 8.70711 6.29289C8.89464 6.48043 9 6.73478 9 7V14C9 15.103 8.103 16 7 16H1C0.734785 16 0.480431 15.8946 0.292894 15.7071C0.105358 15.5196 1.20979e-06 15.2652 1.20979e-06 15V10L0.00300123 7.081C-0.00599877 6.97 -0.195999 4.34 1.691 2.292ZM18 16H12C11.7348 16 11.4804 15.8946 11.2929 15.7071C11.1054 15.5196 11 15.2652 11 15V10L11.003 7.081C10.994 6.97 10.804 4.34 12.691 2.292C14.094 0.771 16.217 0 19 0H20V2.819L19.196 2.98C17.826 3.254 16.873 3.793 16.363 4.584C16.0969 5.01013 15.946 5.49804 15.925 6H19C19.2652 6 19.5196 6.10536 19.7071 6.29289C19.8946 6.48043 20 6.73478 20 7V14C20 15.103 19.103 16 18 16Z" fill="#E7E7E7"/>
</svg>
