<svg width="86" height="16" viewBox="0 0 86 16" fill="none" xmlns="http://www.w3.org/2000/svg">
<path d="M16.3928 5.83426C16.3928 5.9734 16.3106 6.12519 16.1462 6.28962L12.7025 9.64788L13.5184 14.3912C13.5247 14.4355 13.5279 14.4987 13.5279 14.5809C13.5279 14.7137 13.4947 14.826 13.4283 14.9177C13.3619 15.0094 13.2654 15.0552 13.1389 15.0552C13.0188 15.0552 12.8923 15.0173 12.7595 14.9414L8.49997 12.7026L4.24049 14.9414C4.10135 15.0173 3.97486 15.0552 3.86102 15.0552C3.72821 15.0552 3.6286 15.0094 3.56219 14.9177C3.49579 14.826 3.46259 14.7137 3.46259 14.5809C3.46259 14.543 3.46891 14.4797 3.48156 14.3912L4.29741 9.64788L0.844282 6.28962C0.686172 6.11886 0.607117 5.96708 0.607117 5.83426C0.607117 5.60026 0.7842 5.4548 1.13837 5.39788L5.90064 4.70536L8.03513 0.388951C8.15529 0.12965 8.31024 0 8.49997 0C8.68971 0 8.84465 0.12965 8.96482 0.388951L11.0993 4.70536L15.8616 5.39788C16.2157 5.4548 16.3928 5.60026 16.3928 5.83426Z" fill="#FB8E28"/>
<path d="M85.7857 5.83426C85.7857 5.9734 85.7035 6.12519 85.5391 6.28962L82.0954 9.64788L82.9113 14.3912C82.9176 14.4355 82.9208 14.4987 82.9208 14.5809C82.9208 14.7137 82.8876 14.826 82.8211 14.9177C82.7547 15.0094 82.6583 15.0552 82.5318 15.0552C82.4116 15.0552 82.2852 15.0173 82.1523 14.9414L77.8929 12.7026L73.6334 14.9414C73.4942 15.0173 73.3677 15.0552 73.2539 15.0552C73.1211 15.0552 73.0215 15.0094 72.9551 14.9177C72.8887 14.826 72.8555 14.7137 72.8555 14.5809C72.8555 14.543 72.8618 14.4797 72.8744 14.3912L73.6903 9.64788L70.2372 6.28962C70.0791 6.11886 70 5.96708 70 5.83426C70 5.60026 70.1771 5.4548 70.5313 5.39788L75.2935 4.70536L77.428 0.388951C77.5482 0.12965 77.7031 0 77.8929 0C78.0826 0 78.2375 0.12965 78.3577 0.388951L80.4922 4.70536L85.2545 5.39788C85.6086 5.4548 85.7857 5.60026 85.7857 5.83426Z" fill="#FB8E28"/>
<path d="M33.7857 5.83426C33.7857 5.9734 33.7035 6.12519 33.5391 6.28962L30.0954 9.64788L30.9113 14.3912C30.9176 14.4355 30.9208 14.4987 30.9208 14.5809C30.9208 14.7137 30.8876 14.826 30.8211 14.9177C30.7547 15.0094 30.6583 15.0552 30.5318 15.0552C30.4116 15.0552 30.2852 15.0173 30.1523 14.9414L25.8929 12.7026L21.6334 14.9414C21.4942 15.0173 21.3677 15.0552 21.2539 15.0552C21.1211 15.0552 21.0215 15.0094 20.9551 14.9177C20.8887 14.826 20.8555 14.7137 20.8555 14.5809C20.8555 14.543 20.8618 14.4797 20.8744 14.3912L21.6903 9.64788L18.2372 6.28962C18.0791 6.11886 18 5.96708 18 5.83426C18 5.60026 18.1771 5.4548 18.5313 5.39788L23.2935 4.70536L25.428 0.388951C25.5482 0.12965 25.7031 0 25.8929 0C26.0826 0 26.2375 0.12965 26.3577 0.388951L28.4922 4.70536L33.2545 5.39788C33.6086 5.4548 33.7857 5.60026 33.7857 5.83426Z" fill="#FB8E28"/>
<path d="M51.3928 5.83426C51.3928 5.9734 51.3106 6.12519 51.1462 6.28962L47.7025 9.64788L48.5184 14.3912C48.5247 14.4355 48.5279 14.4987 48.5279 14.5809C48.5279 14.7137 48.4947 14.826 48.4283 14.9177C48.3619 15.0094 48.2654 15.0552 48.1389 15.0552C48.0188 15.0552 47.8923 15.0173 47.7595 14.9414L43.5 12.7026L39.2405 14.9414C39.1014 15.0173 38.9749 15.0552 38.861 15.0552C38.7282 15.0552 38.6286 15.0094 38.5622 14.9177C38.4958 14.826 38.4626 14.7137 38.4626 14.5809C38.4626 14.543 38.4689 14.4797 38.4816 14.3912L39.2974 9.64788L35.8443 6.28962C35.6862 6.11886 35.6071 5.96708 35.6071 5.83426C35.6071 5.60026 35.7842 5.4548 36.1384 5.39788L40.9006 4.70536L43.0351 0.388951C43.1553 0.12965 43.3102 0 43.5 0C43.6897 0 43.8447 0.12965 43.9648 0.388951L46.0993 4.70536L50.8616 5.39788C51.2157 5.4548 51.3928 5.60026 51.3928 5.83426Z" fill="#FB8E28"/>
<path d="M68.7857 5.83426C68.7857 5.9734 68.7035 6.12519 68.5391 6.28962L65.0954 9.64788L65.9113 14.3912C65.9176 14.4355 65.9208 14.4987 65.9208 14.5809C65.9208 14.7137 65.8876 14.826 65.8211 14.9177C65.7547 15.0094 65.6583 15.0552 65.5318 15.0552C65.4116 15.0552 65.2852 15.0173 65.1523 14.9414L60.8929 12.7026L56.6334 14.9414C56.4942 15.0173 56.3677 15.0552 56.2539 15.0552C56.1211 15.0552 56.0215 15.0094 55.9551 14.9177C55.8887 14.826 55.8555 14.7137 55.8555 14.5809C55.8555 14.543 55.8618 14.4797 55.8744 14.3912L56.6903 9.64788L53.2372 6.28962C53.0791 6.11886 53 5.96708 53 5.83426C53 5.60026 53.1771 5.4548 53.5313 5.39788L58.2935 4.70536L60.428 0.388951C60.5482 0.12965 60.7031 0 60.8929 0C61.0826 0 61.2375 0.12965 61.3577 0.388951L63.4922 4.70536L68.2545 5.39788C68.6086 5.4548 68.7857 5.60026 68.7857 5.83426Z" fill="#FB8E28"/>
</svg>
